#tb 0: 1/30
0,          0,          0,        1,  1179648, 0x99f80436
0,          1,          1,        1,  1179648, 0x99f80436
0,          2,          2,        1,  1179648, 0x99f80436
0,          3,          3,        1,  1179648, 0x99f80436
0,          4,          4,        1,  1179648, 0x99f80436
0,          5,          5,        1,  1179648, 0xe8ae7a30
0,          6,          6,        1,  1179648, 0xe8ae7a30
0,          7,          7,        1,  1179648, 0xe8ae7a30
0,          8,          8,        1,  1179648, 0xe8ae7a30
0,          9,          9,        1,  1179648, 0xe8ae7a30
